<svg width="148" height="67" viewBox="0 0 148 67" fill="none" xmlns="http://www.w3.org/2000/svg">
<path fill-rule="evenodd" clip-rule="evenodd" d="M59.4699 12.1689L48.2145 8.13536C52.2013 8.82083 55.9464 10.2019 59.4699 12.1689ZM85.5883 14.1143C81.1179 13.0691 76.726 11.8811 72.1938 11.3419C76.9434 10.9517 81.317 12.3992 85.5883 14.1143ZM74.5003 27.9053C74.524 29.6725 73.3833 29.451 72.3368 29.3C68.7977 28.7913 66.9783 26.0636 65.264 23.4389C64.0143 21.5261 62.9563 19.3802 62.9271 16.9642C62.9156 16.043 63.1608 15.3108 64.353 15.9685C67.6076 17.7648 70.5337 19.9479 72.645 23.0643C73.6509 24.5491 74.3492 26.1774 74.5003 27.9053ZM72.2121 13.4321C75.0909 13.2892 77.8531 14.0823 80.6105 14.7827C92.525 17.8098 102.561 24.1504 111.658 32.2406C117.734 37.6451 123.236 43.576 128.539 49.7127C129.023 50.2722 129.49 50.8574 130.219 51.1135C131.038 51.4007 131.617 51.3349 131.231 50.2437C131.137 49.9748 130.764 49.7235 131.274 49.5671C133.033 49.0266 132.556 47.745 132.244 46.5793C131.659 44.3915 130.194 42.667 128.941 40.872C125.431 35.8427 121.727 30.9414 117.413 26.5685C113.407 22.5092 108.858 19.0757 104.215 15.7716C101.26 13.6685 98.2249 11.57 94.7461 10.6197C92.435 9.98845 90.5682 8.57686 88.3133 7.93474C83.9905 6.704 79.6717 5.52407 75.1545 5.27345C71.4366 5.06754 67.9245 5.80449 64.6902 7.65432C63.6241 8.26461 62.6216 8.30728 61.5392 7.86159C58.6219 6.66133 55.6572 5.55116 52.7019 4.48977C47.8941 2.76186 42.8343 1.80477 37.7705 1.04885C29.6938 -0.156826 21.6057 -0.536816 13.527 1.06511C8.77878 2.00661 4.15861 3.24345 0.593061 6.84286C-0.34574 7.79047 -1.04205 8.83628 -0.998023 10.2445C-0.979735 10.8514 -0.788046 11.3106 -0.194014 11.5646C0.508392 11.864 0.570031 11.3662 0.893802 10.911C3.11346 7.78843 6.65123 7.37932 10.0129 6.68707C19.2769 4.77899 28.4943 5.65276 37.6892 7.26078C44.7255 8.49152 51.5741 10.3969 58.1918 13.1015C58.7174 13.3162 59.4422 13.298 59.0046 14.2903C57.4799 17.7474 57.7258 21.2825 58.9667 24.7227C60.8815 30.0331 64.0014 34.3383 69.7344 35.9829C72.815 36.8669 74.8694 35.8657 76.6765 33.241C81.2818 26.555 78.7546 19.3555 73.5038 15.0455C73.0331 14.6601 72.563 14.2747 72.0936 13.89C72.1329 13.7369 72.1729 13.5845 72.2121 13.4321Z" fill="#DF6951"/>
<path fill-rule="evenodd" clip-rule="evenodd" d="M131.524 59.5679C135.13 60.7031 138.502 62.2983 141.53 64.5674C138.195 62.9011 134.86 61.2342 131.524 59.5679ZM138.978 44.4177C139.062 48.2461 139.799 51.9931 140.387 55.7592C140.475 56.322 140.876 56.9357 140.169 57.4275C139.49 57.8996 138.966 57.4173 138.506 57.1145C135.997 55.4666 133.146 54.647 130.413 53.5158C128.687 52.8005 127.083 51.7533 125.287 51.0726C122.522 50.0254 119.833 48.7696 117.143 47.5328C115.781 46.9063 114.183 46.9449 112.998 45.7507C111.835 44.5796 110.575 44.9325 109.143 46.8839C108.413 47.8796 108.113 49.2072 109.357 50.1521C110.38 50.929 111.48 51.6402 112.633 52.2017C120.263 55.917 127.923 59.5706 135.558 63.277C137.271 64.1088 138.931 65.0571 140.604 65.9715C143.646 67.6344 144.934 67.188 146.559 64.1088C147.821 61.7184 147.922 59.3593 147.073 56.8131C145.44 51.9118 143.947 46.9638 143.263 41.8194C143.126 40.7885 143.134 39.7393 143.037 38.7016C142.926 37.5 142.362 37.1931 141.331 37.9003C139.043 39.4663 138.85 39.994 138.978 44.4177Z" fill="#DF6951"/>
</svg>
