<svg width="80" height="80" viewBox="0 0 80 80" fill="none" xmlns="http://www.w3.org/2000/svg">
<circle cx="40" cy="40" r="40" fill="#EAF3F5"/>
<rect width="40" height="40" transform="translate(20 20)" fill="#EAF3F5"/>
<path d="M32.5887 21.8429C33.412 21.4313 34.4131 21.7651 34.8247 22.5884C35.9369 24.8129 35.3827 27.0192 34.9906 28.5805L34.9511 28.7377C34.5101 30.5027 34.3088 31.5553 34.8253 32.5883C35.2369 33.4116 34.9032 34.4127 34.0799 34.8244C33.2566 35.236 32.2555 34.9023 31.8439 34.079C30.7315 31.8544 31.2857 29.6481 31.6779 28.0867L31.7173 27.9296C32.1583 26.1646 32.3597 25.112 31.8432 24.0789C31.4316 23.2556 31.7654 22.2545 32.5887 21.8429Z" fill="#2A2D2E"/>
<path d="M41.4909 22.5884C41.0792 21.7651 40.0781 21.4313 39.2548 21.8429C38.4315 22.2545 38.0978 23.2556 38.5094 24.0789C39.0258 25.1119 38.8243 26.1644 38.383 27.9294L38.3436 28.0865C37.9513 29.6479 37.3968 31.8543 38.5092 34.079C38.9209 34.9023 39.922 35.236 40.7453 34.8244C41.5686 34.4127 41.9023 33.4116 41.4906 32.5883C40.9742 31.5554 41.1756 30.5029 41.6168 28.7379L41.6563 28.5807C42.0486 27.0193 42.6031 24.813 41.4909 22.5884Z" fill="#2A2D2E"/>
<path d="M48.1574 22.5884C47.7458 21.7651 46.7447 21.4313 45.9213 21.8429C45.098 22.2545 44.7643 23.2556 45.1759 24.0789C45.6923 25.1119 45.4909 26.1644 45.0496 27.9294L45.0102 28.0865C44.6179 29.6479 44.0635 31.8543 45.1759 34.079C45.5875 34.9023 46.5887 35.236 47.412 34.8244C48.2353 34.4127 48.569 33.4116 48.1573 32.5883C47.6409 31.5554 47.8422 30.5028 48.2835 28.7379L48.3229 28.5806C48.7152 27.0193 49.2696 24.813 48.1574 22.5884Z" fill="#2A2D2E"/>
<path fill-rule="evenodd" clip-rule="evenodd" d="M25 38.3333C24.0795 38.3333 23.3333 39.0795 23.3333 40V46.6666C23.3333 53.1099 28.5567 58.3333 35 58.3333H45C51.4433 58.3333 56.6666 53.1099 56.6666 46.6666V40C56.6666 39.0795 55.9205 38.3333 55 38.3333H25ZM26.6666 45V41.6666H53.3333V45H26.6666ZM26.8333 48.3333H53.1666C52.3945 52.137 49.0316 55 45 55H35C30.9684 55 27.6055 52.137 26.8333 48.3333Z" fill="#2A2D2E"/>
</svg>
