<svg width="24" height="24" viewBox="0 0 24 24" fill="none" xmlns="http://www.w3.org/2000/svg">
<path fill-rule="evenodd" clip-rule="evenodd" d="M21 7C21 10.3137 18.3137 13 15 13C11.6863 13 9 10.3137 9 7C9 3.68629 11.6863 1 15 1C18.3137 1 21 3.68629 21 7ZM19 7C19 9.20914 17.2091 11 15 11C12.7909 11 11 9.20914 11 7C11 4.79086 12.7909 3 15 3C17.2091 3 19 4.79086 19 7Z" fill="white"/>
<path d="M8.19893 3.07982C8.74018 2.96995 9.08988 2.44212 8.98001 1.90087C8.87015 1.35963 8.34231 1.00992 7.80107 1.11979C5.06196 1.6758 3 4.09587 3 6.99979C3 9.9037 5.06196 12.3238 7.80107 12.8798C8.34231 12.9896 8.87015 12.6399 8.98001 12.0987C9.08988 11.5575 8.74018 11.0296 8.19893 10.9198C6.37356 10.5492 5 8.93379 5 6.99979C5 5.06578 6.37356 3.45035 8.19893 3.07982Z" fill="white"/>
<path fill-rule="evenodd" clip-rule="evenodd" d="M9.69791 15.5735C10.9308 14.6272 12.6491 14 15 14C17.351 14 19.0693 14.6272 20.3022 15.5736C21.5258 16.5128 22.1915 17.705 22.5525 18.7086C22.8703 19.592 22.6476 20.4567 22.1148 21.0695C21.6002 21.6613 20.8211 22 20 22H10C9.17889 22 8.39979 21.6613 7.88521 21.0695C7.35237 20.4566 7.12977 19.5919 7.44753 18.7086C7.80856 17.705 8.47426 16.5128 9.69791 15.5735ZM10.9157 17.16C10.0736 17.8065 9.59844 18.6378 9.32947 19.3856C9.27335 19.5416 9.30422 19.6534 9.39447 19.7572C9.50298 19.882 9.71659 20 10 20H20C20.2834 20 20.497 19.882 20.6056 19.7572C20.6958 19.6534 20.7267 19.5416 20.6706 19.3856C20.4016 18.6379 19.9265 17.8065 19.0844 17.16C18.2515 16.5207 16.979 16 15 16C13.0211 16 11.7486 16.5207 10.9157 17.16Z" fill="white"/>
<path d="M3.25092 19.2769C3.45563 18.4886 3.80698 17.6598 4.3868 17.0404C4.93788 16.4517 5.74052 16 7 16C7.55229 16 8 15.5523 8 15C8 14.4477 7.55229 14 7 14C5.17933 14 3.85054 14.6867 2.9267 15.6736C2.03162 16.6298 1.56455 17.8138 1.31514 18.7741C0.831943 20.6347 2.4145 22 3.99997 22H4.76919C5.32148 22 5.76919 21.5523 5.76919 21C5.76919 20.4477 5.32148 20 4.76919 20H3.99997C3.71744 20 3.49245 19.8839 3.36454 19.7426C3.24868 19.6146 3.2026 19.4629 3.25092 19.2769Z" fill="white"/>
</svg>
